<?xml version="1.0" standalone="no"?>
<!DOCTYPE svg PUBLIC "-//W3C//DTD SVG 20010904//EN"
 "http://www.w3.org/TR/2001/REC-SVG-20010904/DTD/svg10.dtd">
<svg version="1.0" xmlns="http://www.w3.org/2000/svg"
 width="1200.000000pt" height="1200.000000pt" viewBox="0 0 1200.000000 1200.000000"
 preserveAspectRatio="xMidYMid meet">

<g transform="translate(0.000000,1200.000000) scale(0.100000,-0.100000)"
fill="#000000" stroke="none">
<path d="M5780 10239 c-343 -16 -748 -89 -1069 -191 -228 -72 -567 -219 -772
-334 -1064 -596 -1822 -1607 -2085 -2779 -85 -378 -114 -712 -96 -1091 13
-266 27 -396 68 -619 279 -1543 1425 -2830 2924 -3283 429 -130 797 -184 1255
-184 550 1 1054 96 1560 295 184 73 515 240 685 348 816 514 1444 1298 1754
2189 243 696 300 1388 176 2127 -241 1439 -1222 2661 -2581 3217 -563 230
-1192 336 -1819 305z m660 -104 c947 -98 1857 -539 2525 -1227 312 -320 556
-661 751 -1049 370 -739 516 -1616 403 -2429 -217 -1564 -1316 -2881 -2819
-3377 -91 -30 -223 -70 -295 -88 -151 -38 -452 -90 -610 -105 -1399 -132
-2765 447 -3642 1542 -432 540 -730 1195 -848 1867 -48 278 -59 413 -59 761
-1 359 12 497 75 805 272 1330 1194 2454 2458 2995 428 183 895 290 1406 324
114 7 511 -4 655 -19z"/>
<path d="M5340 9171 c-166 -53 -289 -171 -349 -334 l-26 -72 0 -680 c0 -755
-2 -730 68 -875 33 -69 58 -102 129 -173 75 -75 100 -94 180 -131 96 -45 165
-66 217 -66 65 0 61 21 61 -350 0 -332 4 -384 33 -402 21 -13 53 -9 70 10 15
17 17 57 17 370 l0 352 255 0 255 0 0 -334 c0 -328 4 -380 33 -398 21 -13 53
-9 70 10 15 17 17 57 17 375 l0 356 48 6 c188 22 300 73 418 190 91 89 140
169 176 285 34 110 32 282 -5 395 -59 181 -186 326 -352 402 -112 51 -189 63
-421 63 l-204 0 0 203 0 202 145 64 c80 36 142 67 139 70 -3 3 -78 38 -167 77
l-162 71 -36 64 c-70 125 -191 219 -324 254 -80 20 -215 19 -285 -4z m219
-377 c101 -85 16 -243 -111 -205 -49 15 -78 59 -78 120 0 95 115 147 189 85z"/>
<path d="M3659 5098 c-20 -8 -20 -17 -18 -574 1 -312 4 -578 7 -591 4 -23 8
-24 66 -21 l61 3 2 424 c1 233 5 426 8 429 9 10 18 -7 22 -45 2 -21 21 -128
43 -238 21 -110 53 -274 70 -365 40 -211 39 -210 89 -210 43 0 45 3 56 75 4
22 15 85 25 140 11 55 35 190 55 300 52 292 57 318 66 335 10 18 9 35 12 -457
2 -252 6 -376 13 -383 6 -6 37 -10 70 -8 l59 3 -3 240 c-1 132 -4 394 -5 582
-1 239 -5 345 -13 353 -12 12 -167 20 -178 9 -5 -5 -28 -141 -40 -239 -3 -19
-12 -68 -20 -108 -9 -40 -15 -76 -14 -80 0 -4 -1 -14 -4 -22 -14 -38 -28 -105
-48 -225 -22 -132 -34 -167 -44 -124 -29 122 -57 262 -61 299 -3 25 -10 63
-16 85 -6 22 -13 49 -14 60 -26 180 -57 331 -70 344 -12 12 -149 19 -176 9z"/>
<path d="M5410 5103 c-14 -3 -29 -8 -33 -12 -8 -8 -47 -364 -76 -714 -26 -300
-29 -303 -56 -62 -9 83 -25 222 -35 310 -11 88 -24 221 -31 295 -15 179 -15
180 -82 180 -84 0 -91 -10 -78 -111 27 -214 50 -410 56 -469 3 -36 10 -87 15
-115 6 -27 12 -72 15 -100 3 -27 9 -79 14 -115 6 -36 15 -108 22 -160 6 -52
16 -101 22 -107 6 -9 40 -13 103 -13 102 0 97 -3 109 70 3 19 15 134 26 255
31 327 31 325 40 325 10 0 18 -58 24 -170 3 -70 15 -209 29 -350 2 -14 4 -44
4 -67 3 -63 19 -73 121 -73 60 0 92 4 99 13 6 7 20 89 32 182 11 94 25 211 31
262 6 51 9 103 5 117 -3 15 -3 26 2 26 5 0 14 51 20 113 6 61 18 162 26 222 8
61 18 145 21 188 l7 77 -48 -1 c-82 -2 -98 -10 -106 -54 -11 -66 -38 -336 -43
-426 -3 -73 -11 -150 -41 -421 -4 -32 -11 -58 -15 -58 -5 0 -9 3 -9 8 0 4 -7
68 -14 142 -7 74 -13 144 -13 155 0 11 -8 83 -16 160 -9 77 -23 214 -32 304
-9 91 -21 173 -26 183 -10 18 -34 21 -89 11z"/>
<path d="M5984 5100 c-20 -8 -22 -17 -23 -106 -1 -54 3 -100 8 -103 6 -4 7
-21 2 -43 -5 -19 -9 -237 -10 -484 -1 -347 2 -450 12 -456 22 -14 57 -9 57 9
0 15 2 15 19 -1 12 -11 27 -15 40 -11 24 7 25 31 29 716 2 369 0 468 -10 476
-17 13 -97 15 -124 3z m106 -144 c0 -11 -19 -15 -25 -6 -3 5 1 10 9 10 9 0 16
-2 16 -4z m-55 -56 c3 -5 1 -10 -4 -10 -6 0 -11 5 -11 10 0 6 2 10 4 10 3 0 8
-4 11 -10z"/>
<path d="M4468 5089 c-13 -7 -18 -23 -18 -59 0 -79 2 -80 90 -80 94 0 90 9 90
-182 0 -84 4 -139 10 -143 8 -5 7 -11 0 -21 -13 -15 -8 -662 4 -683 8 -12 103
-15 130 -5 15 6 16 55 16 503 -1 273 -1 504 0 514 0 14 10 17 69 17 84 0 101
12 101 75 0 80 15 75 -244 75 -138 0 -238 -5 -248 -11z"/>
<path d="M6220 5090 c-10 -6 -14 -25 -12 -66 1 -31 5 -61 8 -65 3 -5 41 -9 85
-9 75 0 79 -1 79 -22 0 -13 2 -84 5 -158 2 -74 5 -292 6 -485 1 -206 6 -355
12 -362 5 -8 31 -13 59 -13 91 0 83 -48 82 529 l-1 511 71 0 c39 0 77 4 85 9
18 11 26 93 12 120 -11 21 -17 21 -244 21 -128 0 -239 -4 -247 -10z m267 -956
c-3 -3 -12 -4 -19 -1 -8 3 -5 6 6 6 11 1 17 -2 13 -5z"/>
<path d="M6798 5089 c-19 -10 -24 -70 -12 -116 6 -21 12 -23 84 -23 59 0 79
-4 83 -15 4 -8 7 -80 8 -160 1 -80 6 -148 10 -151 5 -3 7 -10 4 -15 -8 -12 -7
-678 1 -690 6 -10 104 -12 128 -3 15 6 16 43 16 348 0 187 0 419 0 514 l0 172
68 0 c93 0 104 10 100 85 l-3 60 -235 2 c-147 2 -242 -1 -252 -8z"/>
<path d="M7402 5091 c-11 -7 -13 -63 -8 -302 3 -162 6 -423 5 -582 l0 -287 23
-8 c39 -13 378 1 387 16 11 18 1 115 -13 124 -6 4 -61 8 -122 8 l-111 0 -7 61
c-3 34 -6 122 -6 195 l0 133 98 3 97 3 3 62 c2 51 0 63 -15 71 -23 13 -153 13
-153 1 0 -5 -7 -9 -15 -9 -13 0 -15 28 -15 190 l0 189 122 3 123 3 2 54 c2 30
-2 60 -8 68 -9 10 -53 13 -193 13 -99 0 -187 -4 -194 -9z"/>
<path d="M7930 5090 c-13 -8 -15 -73 -15 -482 0 -260 2 -525 5 -588 l5 -115
67 -3 c59 -3 68 0 78 18 6 11 9 24 6 28 -3 5 -6 107 -7 228 -1 207 0 219 17
219 20 0 23 -9 139 -340 26 -71 52 -136 60 -144 10 -10 29 -12 79 -6 36 3 68
10 71 15 6 10 -30 113 -113 318 l-70 173 58 57 c81 79 94 125 88 316 -5 164
-19 208 -80 260 -21 19 -59 39 -83 45 -54 13 -284 14 -305 1z m283 -168 c29
-31 36 -70 38 -191 1 -104 -1 -122 -18 -140 -25 -27 -66 -41 -117 -41 l-43 0
-7 53 c-3 28 -6 116 -6 195 l0 142 68 0 c53 0 73 -4 85 -18z"/>
</g>
</svg>
